<svg width="157" height="50" viewBox="0 0 157 50" fill="none" xmlns="http://www.w3.org/2000/svg">
<path d="M27.5676 26.8104C27.3991 26.4436 27.4136 26.0813 27.5002 25.7145C27.635 25.1285 27.9287 24.6052 28.2561 24.1042C28.9156 23.0889 29.7196 22.1719 30.5765 21.3042C31.2794 20.5885 31.6549 19.7521 31.8426 18.8307C32.2326 16.9476 31.8426 15.2121 30.5909 13.6823C29.6425 12.5238 28.4005 11.7187 26.8696 11.3564C25.4783 11.0254 24.1111 11.1462 22.7872 11.6382C21.3526 12.1705 20.1972 13.0293 19.3402 14.2236C18.7962 14.9839 18.4448 15.8159 18.3148 16.7239C18.1271 18.0255 18.4255 19.2422 19.061 20.4051C19.5087 21.2192 20.0768 21.9438 20.8471 22.5119C21.6173 23.0844 22.0217 23.8761 22.3635 24.7036C22.5513 25.1643 22.7342 25.625 22.792 26.1215C22.8016 26.2199 22.8642 26.2378 22.9557 26.2378C23.2445 26.2378 23.5334 26.2333 23.8222 26.2378C23.9474 26.2378 23.9811 26.1976 23.9811 26.0857C23.9763 25.7547 23.9811 25.4193 23.9811 25.0883C23.9811 23.4467 23.9811 21.8052 23.9811 20.1591C23.9811 19.9176 23.9811 19.9265 23.7356 19.8684C23.3745 19.7789 23.0086 19.6984 22.662 19.5732C22.2143 19.4166 22.0362 19.0588 21.9736 18.6428C21.9399 18.3968 21.9014 18.1552 22.0939 17.9405C22.3828 17.6274 22.7439 17.4262 23.1771 17.3501C23.9811 17.207 24.3855 17.699 24.5155 18.276C24.5636 18.5041 24.5829 18.7412 24.6069 18.9738C24.6166 19.0767 24.6599 19.1214 24.7802 19.1169C24.9872 19.108 25.1943 19.1125 25.4061 19.1169C25.5216 19.1169 25.5649 19.0811 25.5938 18.9783C25.719 18.5354 25.8779 18.1061 26.1956 17.7438C26.3785 17.5335 26.5952 17.3725 26.8888 17.3143C27.2451 17.2428 27.5484 17.3501 27.818 17.5648C28.4005 18.03 28.5738 18.8664 27.9865 19.4121C27.741 19.6403 27.4232 19.7387 27.1055 19.8415C26.8455 19.922 26.5856 20.0115 26.3208 20.092C26.2389 20.1189 26.2004 20.1502 26.2341 20.2307C26.523 20.9687 26.4652 21.7381 26.4604 22.5074C26.4604 23.241 26.4604 23.979 26.4604 24.7126C26.4604 25.1151 26.4796 25.5177 26.4604 25.9202C26.4459 26.3228 26.1667 26.5778 25.796 26.8014C25.7816 26.627 25.7671 26.4704 25.7623 26.3139C25.7238 25.0212 25.6853 23.7285 25.6468 22.4358C25.6227 21.6531 25.589 20.8703 25.565 20.0876C25.565 19.9444 25.5024 19.9042 25.3579 19.9131C25.1798 19.9221 25.0017 19.9221 24.8188 19.9131C24.6647 19.9042 24.6214 19.9534 24.6262 20.0965C24.6454 21.2237 24.6551 22.3508 24.6647 23.478C24.6695 24.1803 24.6743 24.8825 24.6647 25.5892C24.6599 25.8621 24.6166 26.1349 24.5588 26.3988C24.4914 26.7254 24.294 26.873 23.9426 26.873C23.466 26.873 22.9846 26.8506 22.508 26.8417C22.3924 26.8417 22.3876 26.7656 22.3683 26.6941C22.1661 25.9515 21.911 25.2269 21.5451 24.5336C21.1215 23.7375 20.5293 23.0576 19.8794 22.409C19.4462 21.9796 19.0177 21.5412 18.6374 21.0716C18.1463 20.4633 17.9201 19.7476 17.7949 19.0051C17.6842 18.361 17.6505 17.7124 17.6986 17.0639C17.7564 16.2453 17.9586 15.4536 18.363 14.7201C18.8299 13.8791 19.3739 13.083 20.1009 12.4075C20.9578 11.6069 21.9977 11.1507 23.1771 10.9449C24.2892 10.7526 25.4157 10.7213 26.5374 10.757C27.1295 10.7749 27.6976 10.9449 28.2272 11.182C29.8447 11.9021 31.082 13.0025 31.9485 14.4562C32.2711 14.9974 32.4444 15.5833 32.5214 16.1961C32.5984 16.8134 32.7284 17.4351 32.6947 18.0479C32.6321 19.1751 32.3192 20.2531 31.549 21.1611C30.8894 21.9393 30.201 22.6997 29.5078 23.4557C29.0745 23.9298 28.8097 24.471 28.6219 25.057C28.492 25.4685 28.3668 25.88 28.2272 26.287C28.1309 26.5688 27.9046 26.7298 27.5821 26.8238L27.5676 26.8104ZM26.1908 19.108C26.6385 19.108 27.0525 19.108 27.4666 19.108C27.5773 19.108 27.5773 19.0409 27.5773 18.9648C27.5773 18.6965 27.5773 18.4281 27.5773 18.1597C27.5773 18.0524 27.5339 18.0211 27.4232 18.0255C27.2066 18.03 26.9851 18.0255 26.7637 18.0255C26.5358 18.0255 26.4058 18.1329 26.3737 18.3476C26.3737 18.3476 26.3641 18.3878 26.3545 18.4102C26.3015 18.6339 26.2437 18.8575 26.1812 19.108H26.1908ZM23.4082 19.108C23.5526 19.108 23.697 19.108 23.8415 19.108C23.9378 19.108 23.9811 19.0677 23.9715 18.9827C23.9522 18.7815 23.9329 18.5802 23.9089 18.3744C23.8944 18.2268 23.7981 18.1239 23.6489 18.0837C23.3119 17.9853 22.9749 17.9763 22.6765 18.1866C22.6331 18.2179 22.5994 18.3029 22.609 18.3521C22.6572 18.5623 22.715 18.768 22.7872 18.9693C22.8113 19.0275 22.8979 19.0901 22.9653 19.1035C23.1049 19.1259 23.2542 19.108 23.3986 19.108H23.4082Z" fill="#207384"/>
<path d="M27.5242 28.9617C27.5386 29.3464 27.4664 29.6908 27.3124 30.0129C27.1968 30.2544 27.0524 30.4781 26.9272 30.7151C26.8839 30.7956 26.8261 30.8091 26.7347 30.8046C26.0751 30.7599 25.4108 30.7241 24.7512 30.6838C24.2169 30.6525 23.6825 30.6167 23.1192 30.5809C23.2685 30.3573 23.4707 30.2142 23.7355 30.1918C24.0147 30.165 24.2987 30.1605 24.5827 30.165C25.223 30.1739 25.8633 30.1963 26.5036 30.2142C26.6384 30.2186 26.6914 30.1784 26.6817 30.0487C26.6721 29.8653 26.6721 29.6819 26.6817 29.503C26.6914 29.3643 26.6288 29.333 26.4891 29.333C25.3386 29.333 24.1928 29.333 23.0422 29.3375C22.8785 29.3375 22.8111 29.2927 22.7678 29.1496C22.6667 28.8365 22.5271 28.5368 22.4453 28.2237C22.3875 27.9956 22.3971 27.7496 22.373 27.4946H27.9671V28.0761H23.2974C23.1529 28.5771 23.4562 28.9662 23.9858 28.9662C25.0882 28.9662 26.1907 28.9662 27.2931 28.9662C27.3605 28.9662 27.4279 28.9662 27.5242 28.9662V28.9617Z" fill="#207384"/>
<path d="M18.2573 24.9897C18.4113 25.7636 17.2945 26.6984 16.3027 26.5776C16.4953 26.3093 16.6638 26.0498 16.8564 25.8083C16.9815 25.6517 17.1596 25.5265 17.2896 25.3699C17.54 25.0703 17.8721 24.9719 18.2621 24.9942L18.2573 24.9897Z" fill="#207384"/>
<path d="M18.0648 12.5597C17.3475 12.0767 16.6543 11.5712 16.3125 10.7393C16.6302 10.7393 16.9095 10.7706 17.1502 10.9226C17.5642 11.191 17.9253 11.5175 18.1997 11.9112C18.3826 12.1751 18.3393 12.3674 18.0648 12.5597Z" fill="#207384"/>
<path d="M31.9007 12.3494C31.8526 11.6919 32.5651 10.8018 33.5857 10.7437C33.6338 11.352 32.9743 12.2779 31.9007 12.3494Z" fill="#207384"/>
<path d="M15.5564 18.665C15.4602 18.987 15.2483 19.0854 14.9258 19.0676C14.4444 19.0452 13.9581 19.0675 13.4719 19.0586C13.1349 19.0586 13.0675 19.0049 12.9809 18.6963C12.9616 18.6292 12.9472 18.5621 12.9231 18.4592C13.8137 18.504 14.7043 18.334 15.5564 18.6605V18.665Z" fill="#207384"/>
<path d="M34.7891 18.4729H35.0587C35.723 18.4729 36.3874 18.4729 37.0469 18.4729C37.1817 18.4729 37.2298 18.4997 37.2395 18.6384C37.2539 18.8263 37.1721 18.8844 36.9891 18.9426C36.4018 19.1349 35.8048 19.0589 35.2079 19.0589C35.0587 19.0589 34.9431 18.9873 34.8998 18.8442C34.8661 18.7323 34.8324 18.6205 34.7891 18.4729Z" fill="#207384"/>
<path d="M25.069 7.38452C25.4156 8.10913 25.2904 8.86058 25.276 9.64334C25.0979 9.58519 24.939 9.54942 24.7946 9.48232C24.7368 9.45548 24.6839 9.37496 24.679 9.31681C24.6598 8.80243 24.655 8.29253 24.6453 7.77814C24.6405 7.51424 24.8716 7.47845 25.069 7.38452Z" fill="#207384"/>
<path d="M31.8862 25.1956C32.2232 25.1956 32.5313 25.2224 32.7624 25.4729C32.9068 25.625 33.0609 25.7726 33.2246 25.9068C33.4653 26.0991 33.6145 26.3227 33.6001 26.6269C33.6001 26.6716 33.6145 26.7208 33.6241 26.77C33.0368 26.6985 32.0788 25.8352 31.8862 25.1956Z" fill="#207384"/>
<path fill-rule="evenodd" clip-rule="evenodd" d="M19.9532 0.0660016C17.9967 0.42542 16.7664 0.746449 16.1482 1.05898C15.7427 1.26411 15.3225 1.43188 15.2145 1.43188C15.1064 1.43188 14.7055 1.62968 14.3234 1.87144C13.9414 2.11321 13.5331 2.31101 13.4162 2.31101C13.2992 2.31101 13.0207 2.47468 12.7972 2.67468C12.3594 3.06648 10.9697 4.14122 9.901 4.91441C9.02406 5.54885 7.03112 8.2642 7.03112 8.8245C7.03112 8.92223 6.98589 9.04736 6.93053 9.1026C6.54684 9.48531 6.11174 11.4112 6.01512 13.1536C5.96813 13.9998 5.86784 14.6921 5.79207 14.6921C5.7163 14.6921 5.48517 14.2965 5.27856 13.813C4.92365 12.9822 4.90294 12.7927 4.9025 10.3697C4.90206 8.23738 4.94861 7.6699 5.17915 6.99971C5.86387 5.00994 6.66783 3.82898 8.35284 2.33768C9.00673 1.75892 9.47266 1.28536 9.38823 1.28536C9.30379 1.28536 8.97854 1.51613 8.66576 1.79818C8.35285 2.08024 8.03464 2.31101 7.95843 2.31101C7.80072 2.31101 5.70954 4.35543 5.70954 4.50957C5.70954 4.5651 5.57063 4.76892 5.40088 4.96262C4.53349 5.95223 3.82101 7.89525 3.43482 10.3246C3.30413 11.1469 2.97931 11.4247 2.7752 10.889C2.41999 9.95696 2.66786 7.85496 3.29414 6.48689C3.44172 6.16454 3.61396 5.78534 3.67681 5.64438C3.73966 5.50343 3.73702 5.38797 3.67094 5.38797C3.45464 5.38797 2.64128 7.19224 2.26728 8.50185C1.69856 10.4931 1.35789 12.6889 0.775217 18.1204C0.497833 20.7071 0.555394 21.8805 0.993424 22.5668C1.86963 23.9397 1.86699 23.7735 1.04408 25.7177C0.249963 27.5938 -0.129916 29.2854 0.0398327 30.1886C0.153342 30.7916 0.441298 30.9963 1.62734 31.3165C2.00693 31.4191 2.43042 31.6274 2.56845 31.7795C2.79356 32.0277 2.79943 32.1391 2.62572 32.8616C2.39518 33.8203 2.55891 34.3401 3.13673 34.4849L3.51059 34.5785L3.21514 35.0557C2.80633 35.7155 2.83438 35.866 3.52791 36.7352L4.13643 37.4977L3.87564 38.8797C3.62087 40.2302 3.62145 40.2791 3.90324 41.0302C4.28958 42.0598 4.77886 42.3128 6.37033 42.3061C7.57737 42.3011 7.91922 42.2409 11.2565 41.4467C12.3286 41.1915 13.5488 40.9685 13.9681 40.9512L14.7302 40.9195L15.0612 41.7254C15.3015 42.3109 15.3933 42.8339 15.3966 43.638C15.4017 44.8964 15.1653 45.4638 13.3023 48.6645C13.0743 49.056 12.9117 49.4002 12.9409 49.4294C13.1046 49.5929 17.435 46.1581 18.1065 45.3323C19.5907 43.5068 20.1459 40.9626 19.5376 38.7739C19.1761 37.4733 18.8265 36.9207 16.6312 34.1795C13.9386 30.8174 12.1536 28.4403 11.6252 27.5128C10.8013 26.0662 8.96679 20.0305 8.65049 17.7261C8.21775 14.5723 9.34711 10.2645 11.232 7.87884C13.4421 5.08189 16.9842 3.05901 20.8234 2.40156C22.9727 2.0335 25.9728 2.0839 27.9013 2.52039C31.8436 3.41271 35.0264 5.45728 36.8904 8.29482C38.2416 10.3518 38.9074 12.0323 39.1824 14.0799C39.6341 17.4434 38.9418 20.8161 36.9817 24.8021C35.5418 27.7301 34.0828 29.8665 30.4832 34.3171C27.6297 37.8454 27.233 38.7383 27.3235 41.4324C27.3736 42.9238 27.4276 43.2123 27.7943 43.944C28.3628 45.0789 29.1859 45.9767 31.374 47.8493C33.1512 49.3703 34.1296 50.0465 34.3029 49.8738C34.3461 49.8306 34.1854 49.4795 33.9458 49.0937C32.5763 46.8893 31.8424 45.5288 31.6907 44.9136C31.3428 43.5026 31.9555 41.4061 32.7423 41.315C32.9518 41.2907 34.3395 41.5721 35.8259 41.9405C37.4619 42.3458 39.0513 42.6457 39.8526 42.7004C41.0858 42.7846 41.2287 42.7644 41.9384 42.4056C42.4827 42.1302 42.8069 41.8387 43.074 41.3839C43.5235 40.6184 43.5435 40.0735 43.1576 39.0967C42.8184 38.2377 42.8713 38.0077 43.4645 37.7624C44.5683 37.3063 44.8739 36.6877 44.4024 35.8645C44.1157 35.3642 44.1231 35.3384 44.61 35.1372C44.8485 35.0386 45.1175 34.7688 45.2175 34.5277C45.3695 34.1617 45.3564 34.0197 45.1322 33.6041C44.7376 32.8731 45.0126 32.3587 46.31 31.4013C47.3686 30.6202 48 29.965 48 29.6479C48 29.5544 47.6377 28.8876 47.1952 28.1658C44.851 24.3437 44.577 23.1439 45.285 19.8022C45.8054 17.3461 45.8809 15.6978 45.5878 13.1799C45.3417 11.065 44.6212 8.31387 43.8732 6.63341C43.3591 5.47838 43.387 6.09406 43.9071 7.37994C44.4896 8.82054 44.6473 10.4929 44.269 11.2226C44.0316 11.6811 43.5959 11.8634 43.5936 11.5053C43.5824 9.80414 42.8337 7.17041 41.9379 5.68102C41.3259 4.66327 39.7033 2.75058 39.452 2.75058C39.387 2.75058 39.0595 2.55233 38.7243 2.30998C37.6864 1.55979 37.9035 1.9661 39.2338 3.26414C40.2764 4.28114 40.6269 4.74474 41.1719 5.82754C41.5378 6.55458 41.9387 7.52793 42.0627 7.99035C42.3639 9.11329 42.3611 11.6308 42.0573 12.938C41.8227 13.9473 41.4497 14.7251 41.281 14.5567C41.2326 14.5087 41.1682 13.6952 41.1375 12.7492C41.0682 10.615 40.8371 9.63432 40.0067 7.95211C39.3725 6.66755 38.0755 4.92159 37.3971 4.43924C35.1367 2.83175 33.7261 2.09225 31.6271 1.41386C30.9003 1.17884 30.1734 0.927111 30.0119 0.854143C29.8503 0.781322 29.4539 0.684471 29.1308 0.638902C28.8078 0.593481 28.0479 0.447252 27.4421 0.314063C26.3737 0.0791885 20.8735 -0.103085 19.9532 0.0660016Z" fill="#207384"/>
<path d="M66.202 25.8022C66.618 25.8022 66.9833 25.7489 67.298 25.6422C67.618 25.5355 67.882 25.3862 68.09 25.1942C68.3033 24.9969 68.4633 24.7595 68.57 24.4822C68.6767 24.2049 68.73 23.8955 68.73 23.5542C68.73 23.2182 68.6767 22.9169 68.57 22.6502C68.4687 22.3835 68.314 22.1569 68.106 21.9702C67.898 21.7835 67.634 21.6422 67.314 21.5462C66.9993 21.4449 66.6287 21.3942 66.202 21.3942H64.49V25.8022H66.202ZM66.202 19.9302C66.954 19.9302 67.6047 20.0182 68.154 20.1942C68.7087 20.3702 69.1647 20.6182 69.522 20.9382C69.8847 21.2529 70.154 21.6342 70.33 22.0822C70.506 22.5249 70.594 23.0155 70.594 23.5542C70.594 24.1035 70.5007 24.6075 70.314 25.0662C70.1273 25.5195 69.85 25.9115 69.482 26.2422C69.114 26.5675 68.6553 26.8235 68.106 27.0102C67.562 27.1915 66.9273 27.2822 66.202 27.2822H64.49V31.4502H62.618V19.9302H66.202ZM76.7481 24.7702C76.7055 24.8449 76.6575 24.8982 76.6041 24.9302C76.5508 24.9622 76.4841 24.9782 76.4041 24.9782C76.3135 24.9782 76.2148 24.9515 76.1081 24.8982C76.0015 24.8395 75.8761 24.7755 75.7321 24.7062C75.5881 24.6369 75.4175 24.5755 75.2201 24.5222C75.0281 24.4635 74.8015 24.4342 74.5401 24.4342C74.3268 24.4342 74.1321 24.4609 73.9561 24.5142C73.7855 24.5622 73.6388 24.6342 73.5161 24.7302C73.3988 24.8209 73.3081 24.9302 73.2441 25.0582C73.1801 25.1809 73.1481 25.3142 73.1481 25.4582C73.1481 25.6502 73.2068 25.8102 73.3241 25.9382C73.4415 26.0662 73.5961 26.1782 73.7881 26.2742C73.9801 26.3649 74.1988 26.4475 74.4441 26.5222C74.6895 26.5969 74.9401 26.6769 75.1961 26.7622C75.4521 26.8475 75.7028 26.9462 75.9481 27.0582C76.1935 27.1702 76.4121 27.3089 76.6041 27.4742C76.7961 27.6342 76.9508 27.8315 77.0681 28.0662C77.1855 28.2955 77.2441 28.5755 77.2441 28.9062C77.2441 29.2902 77.1748 29.6449 77.0361 29.9702C76.8975 30.2955 76.6948 30.5782 76.4281 30.8182C76.1615 31.0582 75.8281 31.2449 75.4281 31.3782C75.0335 31.5115 74.5801 31.5782 74.0681 31.5782C73.7855 31.5782 73.5108 31.5515 73.2441 31.4982C72.9828 31.4502 72.7321 31.3835 72.4921 31.2982C72.2575 31.2075 72.0361 31.1009 71.8281 30.9782C71.6255 30.8555 71.4441 30.7222 71.2841 30.5782L71.6841 29.9222C71.7321 29.8422 71.7908 29.7809 71.8601 29.7382C71.9348 29.6902 72.0255 29.6662 72.1321 29.6662C72.2441 29.6662 72.3535 29.7035 72.4601 29.7782C72.5721 29.8475 72.7001 29.9249 72.8441 30.0102C72.9935 30.0955 73.1721 30.1755 73.3801 30.2502C73.5881 30.3195 73.8468 30.3542 74.1561 30.3542C74.4121 30.3542 74.6335 30.3249 74.8201 30.2662C75.0068 30.2022 75.1615 30.1169 75.2841 30.0102C75.4068 29.9035 75.4975 29.7835 75.5561 29.6502C75.6148 29.5115 75.6441 29.3649 75.6441 29.2102C75.6441 29.0022 75.5855 28.8315 75.4681 28.6982C75.3508 28.5649 75.1935 28.4502 74.9961 28.3542C74.8041 28.2582 74.5828 28.1729 74.3321 28.0982C74.0868 28.0235 73.8361 27.9435 73.5801 27.8582C73.3241 27.7729 73.0708 27.6742 72.8201 27.5622C72.5748 27.4502 72.3535 27.3089 72.1561 27.1382C71.9641 26.9622 71.8095 26.7515 71.6921 26.5062C71.5748 26.2555 71.5161 25.9515 71.5161 25.5942C71.5161 25.2689 71.5801 24.9595 71.7081 24.6662C71.8415 24.3729 72.0335 24.1142 72.2841 23.8902C72.5401 23.6662 72.8521 23.4902 73.2201 23.3622C73.5935 23.2289 74.0228 23.1622 74.5081 23.1622C75.0575 23.1622 75.5561 23.2502 76.0041 23.4262C76.4521 23.6022 76.8281 23.8422 77.1321 24.1462L76.7481 24.7702ZM85.9443 23.2902L81.4483 33.7702C81.3896 33.8929 81.3176 33.9889 81.2323 34.0582C81.1523 34.1275 81.0269 34.1622 80.8563 34.1622H79.5843L81.0883 30.8982L77.7603 23.2902H79.2563C79.4003 23.2902 79.5096 23.3249 79.5843 23.3942C79.6643 23.4582 79.7229 23.5355 79.7603 23.6262L81.7043 28.2582C81.7523 28.3915 81.7949 28.5249 81.8323 28.6582C81.8749 28.7862 81.9149 28.9195 81.9523 29.0582C81.9949 28.9195 82.0376 28.7835 82.0803 28.6502C82.1229 28.5169 82.1709 28.3835 82.2243 28.2502L84.0883 23.6262C84.1256 23.5302 84.1869 23.4502 84.2723 23.3862C84.3629 23.3222 84.4616 23.2902 84.5683 23.2902H85.9443ZM92.5973 24.8902C92.5439 24.9595 92.4933 25.0129 92.4453 25.0502C92.3973 25.0875 92.3279 25.1062 92.2373 25.1062C92.1466 25.1062 92.0506 25.0742 91.9493 25.0102C91.8533 24.9462 91.7359 24.8769 91.5973 24.8022C91.4639 24.7222 91.3013 24.6502 91.1093 24.5862C90.9173 24.5222 90.6773 24.4902 90.3893 24.4902C90.0159 24.4902 89.6879 24.5569 89.4053 24.6902C89.1279 24.8235 88.8933 25.0155 88.7013 25.2662C88.5146 25.5115 88.3733 25.8129 88.2773 26.1702C88.1866 26.5222 88.1413 26.9195 88.1413 27.3622C88.1413 27.8209 88.1919 28.2289 88.2933 28.5862C88.3946 28.9435 88.5386 29.2449 88.7253 29.4902C88.9173 29.7355 89.1466 29.9222 89.4133 30.0502C89.6853 30.1782 89.9893 30.2422 90.3253 30.2422C90.6559 30.2422 90.9253 30.2022 91.1333 30.1222C91.3413 30.0422 91.5146 29.9542 91.6533 29.8582C91.7919 29.7622 91.9093 29.6742 92.0053 29.5942C92.1066 29.5142 92.2133 29.4742 92.3253 29.4742C92.4639 29.4742 92.5706 29.5275 92.6453 29.6342L93.1333 30.2662C92.9359 30.5062 92.7173 30.7089 92.4773 30.8742C92.2373 31.0395 91.9839 31.1755 91.7173 31.2822C91.4506 31.3835 91.1733 31.4555 90.8853 31.4982C90.5973 31.5462 90.3066 31.5702 90.0133 31.5702C89.5066 31.5702 89.0319 31.4769 88.5893 31.2902C88.1519 31.0982 87.7679 30.8235 87.4373 30.4662C87.1119 30.1035 86.8533 29.6635 86.6613 29.1462C86.4746 28.6235 86.3813 28.0289 86.3813 27.3622C86.3813 26.7595 86.4666 26.2022 86.6373 25.6902C86.8079 25.1729 87.0559 24.7275 87.3813 24.3542C87.7119 23.9809 88.1199 23.6902 88.6053 23.4822C89.0906 23.2689 89.6506 23.1622 90.2853 23.1622C90.8773 23.1622 91.3973 23.2582 91.8453 23.4502C92.2986 23.6422 92.7013 23.9142 93.0533 24.2662L92.5973 24.8902ZM96.2368 24.2582C96.5728 23.9275 96.9408 23.6635 97.3408 23.4662C97.7408 23.2635 98.2074 23.1622 98.7408 23.1622C99.1888 23.1622 99.5808 23.2369 99.9168 23.3862C100.258 23.5355 100.543 23.7462 100.773 24.0182C101.007 24.2902 101.183 24.6182 101.301 25.0022C101.418 25.3809 101.477 25.7995 101.477 26.2582V31.4502H99.7648V26.2582C99.7648 25.7089 99.6368 25.2822 99.3808 24.9782C99.1301 24.6742 98.7461 24.5222 98.2288 24.5222C97.8448 24.5222 97.4874 24.6102 97.1568 24.7862C96.8314 24.9622 96.5248 25.2022 96.2368 25.5062V31.4502H94.5168V19.6102H96.2368V24.2582ZM105.529 31.4502H103.649V19.9302H105.529V31.4502ZM109.422 24.3702C109.598 24.1889 109.779 24.0262 109.966 23.8822C110.158 23.7329 110.36 23.6049 110.574 23.4982C110.787 23.3915 111.014 23.3089 111.254 23.2502C111.494 23.1915 111.755 23.1622 112.038 23.1622C112.486 23.1622 112.878 23.2369 113.214 23.3862C113.555 23.5355 113.84 23.7462 114.07 24.0182C114.304 24.2902 114.48 24.6182 114.598 25.0022C114.715 25.3809 114.774 25.7995 114.774 26.2582V31.4502H113.062V26.2582C113.062 25.7089 112.934 25.2822 112.678 24.9782C112.427 24.6742 112.043 24.5222 111.526 24.5222C111.142 24.5222 110.784 24.6102 110.454 24.7862C110.128 24.9622 109.822 25.2022 109.534 25.5062V31.4502H107.814V23.2902H108.854C109.088 23.2902 109.238 23.3995 109.302 23.6182L109.422 24.3702ZM121.654 24.7702C121.612 24.8449 121.564 24.8982 121.51 24.9302C121.457 24.9622 121.39 24.9782 121.31 24.9782C121.22 24.9782 121.121 24.9515 121.014 24.8982C120.908 24.8395 120.782 24.7755 120.638 24.7062C120.494 24.6369 120.324 24.5755 120.126 24.5222C119.934 24.4635 119.708 24.4342 119.446 24.4342C119.233 24.4342 119.038 24.4609 118.862 24.5142C118.692 24.5622 118.545 24.6342 118.422 24.7302C118.305 24.8209 118.214 24.9302 118.15 25.0582C118.086 25.1809 118.054 25.3142 118.054 25.4582C118.054 25.6502 118.113 25.8102 118.23 25.9382C118.348 26.0662 118.502 26.1782 118.694 26.2742C118.886 26.3649 119.105 26.4475 119.35 26.5222C119.596 26.5969 119.846 26.6769 120.102 26.7622C120.358 26.8475 120.609 26.9462 120.854 27.0582C121.1 27.1702 121.318 27.3089 121.51 27.4742C121.702 27.6342 121.857 27.8315 121.974 28.0662C122.092 28.2955 122.15 28.5755 122.15 28.9062C122.15 29.2902 122.081 29.6449 121.942 29.9702C121.804 30.2955 121.601 30.5782 121.334 30.8182C121.068 31.0582 120.734 31.2449 120.334 31.3782C119.94 31.5115 119.486 31.5782 118.974 31.5782C118.692 31.5782 118.417 31.5515 118.15 31.4982C117.889 31.4502 117.638 31.3835 117.398 31.2982C117.164 31.2075 116.942 31.1009 116.734 30.9782C116.532 30.8555 116.35 30.7222 116.19 30.5782L116.59 29.9222C116.638 29.8422 116.697 29.7809 116.766 29.7382C116.841 29.6902 116.932 29.6662 117.038 29.6662C117.15 29.6662 117.26 29.7035 117.366 29.7782C117.478 29.8475 117.606 29.9249 117.75 30.0102C117.9 30.0955 118.078 30.1755 118.286 30.2502C118.494 30.3195 118.753 30.3542 119.062 30.3542C119.318 30.3542 119.54 30.3249 119.726 30.2662C119.913 30.2022 120.068 30.1169 120.19 30.0102C120.313 29.9035 120.404 29.7835 120.462 29.6502C120.521 29.5115 120.55 29.3649 120.55 29.2102C120.55 29.0022 120.492 28.8315 120.374 28.6982C120.257 28.5649 120.1 28.4502 119.902 28.3542C119.71 28.2582 119.489 28.1729 119.238 28.0982C118.993 28.0235 118.742 27.9435 118.486 27.8582C118.23 27.7729 117.977 27.6742 117.726 27.5622C117.481 27.4502 117.26 27.3089 117.062 27.1382C116.87 26.9622 116.716 26.7515 116.598 26.5062C116.481 26.2555 116.422 25.9515 116.422 25.5942C116.422 25.2689 116.486 24.9595 116.614 24.6662C116.748 24.3729 116.94 24.1142 117.19 23.8902C117.446 23.6662 117.758 23.4902 118.126 23.3622C118.5 23.2289 118.929 23.1622 119.414 23.1622C119.964 23.1622 120.462 23.2502 120.91 23.4262C121.358 23.6022 121.734 23.8422 122.038 24.1462L121.654 24.7702ZM125.559 23.2902V31.4502H123.839V23.2902H125.559ZM125.847 20.8262C125.847 20.9809 125.815 21.1275 125.751 21.2662C125.692 21.4049 125.609 21.5275 125.503 21.6342C125.396 21.7355 125.271 21.8182 125.127 21.8822C124.988 21.9409 124.839 21.9702 124.679 21.9702C124.524 21.9702 124.377 21.9409 124.239 21.8822C124.105 21.8182 123.988 21.7355 123.887 21.6342C123.785 21.5275 123.703 21.4049 123.639 21.2662C123.58 21.1275 123.551 20.9809 123.551 20.8262C123.551 20.6662 123.58 20.5169 123.639 20.3782C123.703 20.2395 123.785 20.1195 123.887 20.0182C123.988 19.9115 124.105 19.8289 124.239 19.7702C124.377 19.7062 124.524 19.6742 124.679 19.6742C124.839 19.6742 124.988 19.7062 125.127 19.7702C125.271 19.8289 125.396 19.9115 125.503 20.0182C125.609 20.1195 125.692 20.2395 125.751 20.3782C125.815 20.5169 125.847 20.6662 125.847 20.8262ZM130.632 27.2982C131.165 27.2982 131.565 27.1622 131.832 26.8902C132.099 26.6182 132.232 26.2635 132.232 25.8262C132.232 25.3782 132.099 25.0235 131.832 24.7622C131.565 24.5009 131.165 24.3702 130.632 24.3702C130.104 24.3702 129.704 24.5009 129.432 24.7622C129.165 25.0235 129.032 25.3782 129.032 25.8262C129.032 26.0395 129.067 26.2369 129.136 26.4182C129.205 26.5995 129.307 26.7569 129.44 26.8902C129.573 27.0182 129.739 27.1195 129.936 27.1942C130.139 27.2635 130.371 27.2982 130.632 27.2982ZM133.024 31.8502C133.024 31.6689 132.971 31.5249 132.864 31.4182C132.763 31.3062 132.624 31.2209 132.448 31.1622C132.272 31.0982 132.067 31.0529 131.832 31.0262C131.597 30.9942 131.347 30.9729 131.08 30.9622C130.819 30.9462 130.549 30.9329 130.272 30.9222C130 30.9062 129.736 30.8795 129.48 30.8422C129.224 30.9755 129.013 31.1355 128.848 31.3222C128.688 31.5089 128.608 31.7249 128.608 31.9702C128.608 32.1302 128.648 32.2795 128.728 32.4182C128.813 32.5569 128.941 32.6769 129.112 32.7782C129.288 32.8795 129.509 32.9595 129.776 33.0182C130.048 33.0769 130.373 33.1062 130.752 33.1062C131.509 33.1062 132.077 32.9889 132.456 32.7542C132.835 32.5195 133.024 32.2182 133.024 31.8502ZM134.752 23.5862V24.2262C134.752 24.4395 134.624 24.5702 134.368 24.6182L133.552 24.7542C133.691 25.0635 133.76 25.4075 133.76 25.7862C133.76 26.1862 133.68 26.5489 133.52 26.8742C133.365 27.1995 133.149 27.4769 132.872 27.7062C132.595 27.9355 132.264 28.1115 131.88 28.2342C131.496 28.3569 131.08 28.4182 130.632 28.4182C130.461 28.4182 130.293 28.4102 130.128 28.3942C129.968 28.3729 129.811 28.3462 129.656 28.3142C129.501 28.4049 129.387 28.5009 129.312 28.6022C129.237 28.7035 129.2 28.8075 129.2 28.9142C129.2 29.0902 129.277 29.2209 129.432 29.3062C129.587 29.3915 129.789 29.4529 130.04 29.4902C130.296 29.5275 130.587 29.5515 130.912 29.5622C131.237 29.5729 131.568 29.5915 131.904 29.6182C132.24 29.6449 132.571 29.6902 132.896 29.7542C133.221 29.8129 133.509 29.9142 133.76 30.0582C134.016 30.1969 134.221 30.3862 134.376 30.6262C134.531 30.8662 134.608 31.1782 134.608 31.5622C134.608 31.9142 134.52 32.2582 134.344 32.5942C134.168 32.9302 133.912 33.2289 133.576 33.4902C133.245 33.7515 132.84 33.9595 132.36 34.1142C131.88 34.2742 131.333 34.3542 130.72 34.3542C130.112 34.3542 129.581 34.2955 129.128 34.1782C128.68 34.0609 128.304 33.9009 128 33.6982C127.701 33.5009 127.477 33.2715 127.328 33.0102C127.184 32.7489 127.112 32.4769 127.112 32.1942C127.112 31.8102 127.232 31.4822 127.472 31.2102C127.717 30.9382 128.048 30.7249 128.464 30.5702C128.24 30.4635 128.059 30.3169 127.92 30.1302C127.787 29.9435 127.72 29.6982 127.72 29.3942C127.72 29.1542 127.808 28.9035 127.984 28.6422C128.16 28.3809 128.424 28.1595 128.776 27.9782C128.371 27.7542 128.051 27.4582 127.816 27.0902C127.581 26.7169 127.464 26.2822 127.464 25.7862C127.464 25.3809 127.541 25.0155 127.696 24.6902C127.856 24.3649 128.077 24.0875 128.36 23.8582C128.643 23.6289 128.976 23.4529 129.36 23.3302C129.749 23.2075 130.173 23.1462 130.632 23.1462C131.336 23.1462 131.949 23.2929 132.472 23.5862H134.752ZM137.831 24.2582C138.167 23.9275 138.535 23.6635 138.935 23.4662C139.335 23.2635 139.801 23.1622 140.335 23.1622C140.783 23.1622 141.175 23.2369 141.511 23.3862C141.852 23.5355 142.137 23.7462 142.367 24.0182C142.601 24.2902 142.777 24.6182 142.895 25.0022C143.012 25.3809 143.071 25.7995 143.071 26.2582V31.4502H141.359V26.2582C141.359 25.7089 141.231 25.2822 140.975 24.9782C140.724 24.6742 140.34 24.5222 139.823 24.5222C139.439 24.5222 139.081 24.6102 138.751 24.7862C138.425 24.9622 138.119 25.2022 137.831 25.5062V31.4502H136.111V19.6102H137.831V24.2582ZM147.586 31.5782C146.909 31.5782 146.386 31.3889 146.018 31.0102C145.655 30.6262 145.474 30.0875 145.474 29.3942V24.6422H144.578C144.482 24.6422 144.399 24.6129 144.33 24.5542C144.261 24.4902 144.226 24.3969 144.226 24.2742V23.5782L145.546 23.3862L145.922 21.0262C145.949 20.9355 145.994 20.8635 146.058 20.8102C146.122 20.7515 146.207 20.7222 146.314 20.7222H147.194V23.4022H149.458V24.6422H147.194V29.2742C147.194 29.5675 147.266 29.7915 147.41 29.9462C147.554 30.1009 147.746 30.1782 147.986 30.1782C148.119 30.1782 148.234 30.1622 148.33 30.1302C148.426 30.0929 148.509 30.0555 148.578 30.0182C148.647 29.9755 148.706 29.9382 148.754 29.9062C148.807 29.8689 148.858 29.8502 148.906 29.8502C149.002 29.8502 149.079 29.9035 149.138 30.0102L149.65 30.8502C149.383 31.0849 149.069 31.2662 148.706 31.3942C148.343 31.5169 147.97 31.5782 147.586 31.5782ZM155.686 24.7702C155.643 24.8449 155.595 24.8982 155.542 24.9302C155.488 24.9622 155.422 24.9782 155.342 24.9782C155.251 24.9782 155.152 24.9515 155.046 24.8982C154.939 24.8395 154.814 24.7755 154.67 24.7062C154.526 24.6369 154.355 24.5755 154.158 24.5222C153.966 24.4635 153.739 24.4342 153.478 24.4342C153.264 24.4342 153.07 24.4609 152.894 24.5142C152.723 24.5622 152.576 24.6342 152.454 24.7302C152.336 24.8209 152.246 24.9302 152.182 25.0582C152.118 25.1809 152.086 25.3142 152.086 25.4582C152.086 25.6502 152.144 25.8102 152.262 25.9382C152.379 26.0662 152.534 26.1782 152.726 26.2742C152.918 26.3649 153.136 26.4475 153.382 26.5222C153.627 26.5969 153.878 26.6769 154.134 26.7622C154.39 26.8475 154.64 26.9462 154.886 27.0582C155.131 27.1702 155.35 27.3089 155.542 27.4742C155.734 27.6342 155.888 27.8315 156.006 28.0662C156.123 28.2955 156.182 28.5755 156.182 28.9062C156.182 29.2902 156.112 29.6449 155.974 29.9702C155.835 30.2955 155.632 30.5782 155.366 30.8182C155.099 31.0582 154.766 31.2449 154.366 31.3782C153.971 31.5115 153.518 31.5782 153.006 31.5782C152.723 31.5782 152.448 31.5515 152.182 31.4982C151.92 31.4502 151.67 31.3835 151.43 31.2982C151.195 31.2075 150.974 31.1009 150.766 30.9782C150.563 30.8555 150.382 30.7222 150.222 30.5782L150.622 29.9222C150.67 29.8422 150.728 29.7809 150.798 29.7382C150.872 29.6902 150.963 29.6662 151.07 29.6662C151.182 29.6662 151.291 29.7035 151.398 29.7782C151.51 29.8475 151.638 29.9249 151.782 30.0102C151.931 30.0955 152.11 30.1755 152.318 30.2502C152.526 30.3195 152.784 30.3542 153.094 30.3542C153.35 30.3542 153.571 30.3249 153.758 30.2662C153.944 30.2022 154.099 30.1169 154.222 30.0102C154.344 29.9035 154.435 29.7835 154.494 29.6502C154.552 29.5115 154.582 29.3649 154.582 29.2102C154.582 29.0022 154.523 28.8315 154.406 28.6982C154.288 28.5649 154.131 28.4502 153.934 28.3542C153.742 28.2582 153.52 28.1729 153.27 28.0982C153.024 28.0235 152.774 27.9435 152.518 27.8582C152.262 27.7729 152.008 27.6742 151.758 27.5622C151.512 27.4502 151.291 27.3089 151.094 27.1382C150.902 26.9622 150.747 26.7515 150.63 26.5062C150.512 26.2555 150.454 25.9515 150.454 25.5942C150.454 25.2689 150.518 24.9595 150.646 24.6662C150.779 24.3729 150.971 24.1142 151.222 23.8902C151.478 23.6662 151.79 23.4902 152.158 23.3622C152.531 23.2289 152.96 23.1622 153.446 23.1622C153.995 23.1622 154.494 23.2502 154.942 23.4262C155.39 23.6022 155.766 23.8422 156.07 24.1462L155.686 24.7702Z" fill="#2E2F32"/>
</svg>
